# xmcd
#
# Track frame offsets: 
#        182
#        13745
#        24857
#        36060
#        48485
#        60362
#        72005
#        84322
#        94320
#        105180
#        116752
#        129867
#        141737
#        152870
#        164757
#        177282
#        190837
#        203702
#        216252
#        228580
#        240317
#
# Disc length: 3361 seconds
#
# Revision: 6
# Processed by: cddbd v1.5.2PL0 Copyright (c) Steve Scherf et al.
# Submitted via: ExactAudioCopyFreeDBPlugin 1.0
#
DISCID=1a0d1f15
DTITLE=Hank Williams - The Complete Hank Williams [CD 04)
DYEAR=1998
DGENRE=Country
TTITLE0=I'd Still Want You
TTITLE1=(I Heard That) Lonesome Whistle
TTITLE2=Crazy Heart
TTITLE3=Half as Much
TTITLE4=I'd Still Want You
TTITLE5=Baby, We're Really in Love
TTITLE6=I'm Sorry for You, My Friend
TTITLE7=Honky Tonk Blues (1952 v.)
TTITLE8=Let's Turn Back the Years
TTITLE9=Window Shopping
TTITLE10=Jambalaya (On the Bayou)
TTITLE11=Settin' the Woods on Fire
TTITLE12=I'll Never Get Out of This World Alive
TTITLE13=You Win Again
TTITLE14=I Won't Be Home No More
TTITLE15=Hank Williams (Luke the Drifter) - Be Careful of Stones That 
TTITLE15=You Throw
TTITLE16=Hank Williams (Luke the Drifter) - Please Make Up Your Mind
TTITLE17=I Could Never Be Ashamed of You
TTITLE18=Your Cheatin' Heart
TTITLE19=Kaw-Liga
TTITLE20=Take These Chains from My Heart
EXTD=YEAR: 1998 ID3G:   2
EXTT0=
EXTT1=
EXTT2=
EXTT3=
EXTT4=
EXTT5=
EXTT6=
EXTT7=
EXTT8=
EXTT9=
EXTT10=
EXTT11=
EXTT12=
EXTT13=
EXTT14=
EXTT15=
EXTT16=
EXTT17=
EXTT18=
EXTT19=
EXTT20=
PLAYORDER=
